<svg width="43" height="43" viewBox="0 0 43 43" fill="none" xmlns="http://www.w3.org/2000/svg">
<path fill-rule="evenodd" clip-rule="evenodd" d="M21.3744 42.7487C33.1791 42.7487 42.7487 33.1791 42.7487 21.3744C42.7487 9.56963 33.1791 0 21.3744 0C9.56963 0 0 9.56963 0 21.3744C0 33.1791 9.56963 42.7487 21.3744 42.7487ZM27.6377 26.8673H30.8323V28.2443H27.6377V31.8638H26.1742V28.2443H22.9795V26.8673H26.1742V23.5232H27.6377V26.8673ZM21.6104 28.8502C21.6104 30.1459 21.314 31.1897 20.7213 31.9818C20.1285 32.7739 19.3259 33.17 18.3135 33.17C17.2801 33.17 16.467 32.8421 15.8743 32.1864V36.2859H14.4186V24.4989H15.7484L15.8192 25.4431C16.412 24.7087 17.2355 24.3415 18.2899 24.3415C19.3128 24.3415 20.1207 24.7271 20.7134 25.4982C21.3114 26.2693 21.6104 27.342 21.6104 28.7164V28.8502ZM20.1548 28.6849C20.1548 27.725 19.9502 26.967 19.541 26.4109C19.1318 25.8549 18.5706 25.5769 17.8571 25.5769C16.9759 25.5769 16.3149 25.9677 15.8743 26.7493V30.8173C16.3097 31.5937 16.9759 31.9818 17.8729 31.9818C18.5706 31.9818 19.124 31.7064 19.5331 31.1556C19.9475 30.5996 20.1548 29.776 20.1548 28.6849ZM39.9755 26.8673H36.7809V23.5232H35.3174V26.8673H32.1227V28.2443H35.3174V31.8638H36.7809V28.2443H39.9755V26.8673Z" fill="#4285F4"/>
</svg>
